<svg width="64" height="64" viewBox="0 0 64 64" fill="none" xmlns="http://www.w3.org/2000/svg">
<path d="M51 27C51.0032 24.4238 50.4824 21.8738 49.4693 19.5052C48.4562 17.1365 46.972 14.9986 45.1069 13.2214C43.2418 11.4442 41.0348 10.0649 38.62 9.16731C36.2052 8.2697 33.6331 7.87256 31.06 8.00001C22.06 8.44001 13.68 16.63 13.06 25.64C12.8457 28.683 13.3703 31.7326 14.5892 34.529C15.808 37.3254 17.685 39.7857 20.06 41.7C24.5733 45.2204 28.297 49.6493 30.99 54.7L31.54 55.76C31.5779 55.8335 31.6352 55.8951 31.7058 55.9381C31.7763 55.9811 31.8574 56.0039 31.94 56.0039C32.0226 56.0039 32.1037 55.9811 32.1742 55.9381C32.2448 55.8951 32.3021 55.8335 32.34 55.76L32.66 55.13C35.3787 49.9452 39.1612 45.3927 43.76 41.77C46.0018 40.0128 47.8174 37.7716 49.0711 35.214C50.3248 32.6563 50.9842 29.8484 51 27Z" fill="#DFE8F4"/>
<path d="M32 38.31C29.7508 38.312 27.5515 37.6468 25.6804 36.3987C23.8093 35.1505 22.3505 33.3755 21.4884 31.2981C20.6263 29.2206 20.3997 26.9342 20.8373 24.728C21.2748 22.5217 22.3569 20.4949 23.9467 18.9037C25.5364 17.3126 27.5623 16.2287 29.7681 15.7892C31.974 15.3497 34.2606 15.5743 36.3388 16.4345C38.417 17.2948 40.1933 18.7521 41.4431 20.6221C42.6929 22.4921 43.36 24.6908 43.36 26.94C43.36 29.9538 42.1635 32.8443 40.0333 34.9763C37.9032 37.1083 35.0138 38.3074 32 38.31ZM32 16.58C29.9482 16.578 27.9418 17.1848 26.235 18.3235C24.5281 19.4622 23.1974 21.0817 22.4113 22.977C21.6252 24.8722 21.419 26.9581 21.8188 28.9706C22.2186 30.9832 23.2064 32.8318 24.6573 34.2827C26.1082 35.7336 27.9569 36.7214 29.9694 37.1212C31.9819 37.521 34.0678 37.3148 35.963 36.5287C37.8583 35.7426 39.4778 34.4119 40.6165 32.705C41.7552 30.9982 42.362 28.9919 42.36 26.94C42.3574 24.1932 41.265 21.5596 39.3227 19.6173C37.3804 17.675 34.7468 16.5827 32 16.58Z" fill="white"/>
<path d="M32 33.55C30.6922 33.552 29.4133 33.166 28.325 32.4409C27.2366 31.7158 26.3879 30.6841 25.886 29.4765C25.3842 28.2688 25.2519 26.9395 25.5058 25.6566C25.7597 24.3737 26.3885 23.195 27.3125 22.2696C28.2365 21.3442 29.4143 20.7136 30.6968 20.4578C31.9793 20.2019 33.3088 20.3322 34.5172 20.8322C35.7256 21.3322 36.7586 22.1794 37.4853 23.2667C38.2121 24.3539 38.6 25.6323 38.6 26.94C38.6 28.6914 37.905 30.3711 36.6675 31.6105C35.4301 32.8498 33.7514 33.5474 32 33.55ZM32 21.34C30.8896 21.338 29.8036 21.6656 28.8795 22.2813C27.9554 22.897 27.2348 23.773 26.809 24.7985C26.3831 25.824 26.2712 26.9528 26.4873 28.042C26.7035 29.1312 27.238 30.1317 28.0231 30.9169C28.8083 31.702 29.8088 32.2366 30.898 32.4527C31.9872 32.6688 33.116 32.5569 34.1415 32.1311C35.167 31.7052 36.043 30.9846 36.6587 30.0605C37.2744 29.1364 37.602 28.0504 37.6 26.94C37.6 25.4548 37.01 24.0304 35.9598 22.9802C34.9096 21.93 33.4852 21.34 32 21.34Z" fill="white"/>
<path d="M32 28.79C31.6337 28.792 31.275 28.6852 30.9695 28.4831C30.664 28.281 30.4253 27.9928 30.2837 27.6549C30.1422 27.3171 30.1041 26.9448 30.1744 26.5853C30.2446 26.2257 30.42 25.8952 30.6783 25.6354C30.9367 25.3757 31.2663 25.1985 31.6254 25.1263C31.9845 25.0541 32.357 25.0902 32.6957 25.2299C33.0343 25.3696 33.3238 25.6067 33.5275 25.9112C33.7313 26.2156 33.84 26.5737 33.84 26.94C33.8413 27.1825 33.7947 27.4228 33.7028 27.6472C33.611 27.8716 33.4756 28.0756 33.3046 28.2475C33.1337 28.4195 32.9304 28.5559 32.7065 28.649C32.4826 28.7421 32.2425 28.79 32 28.79ZM32 26.1C31.8311 26.098 31.6654 26.1464 31.5241 26.2391C31.3828 26.3317 31.2723 26.4644 31.2067 26.6201C31.1411 26.7758 31.1234 26.9475 31.1559 27.1133C31.1884 27.2791 31.2696 27.4315 31.389 27.551C31.5085 27.6705 31.6609 27.7516 31.8267 27.7841C31.9925 27.8166 32.1642 27.7989 32.3199 27.7333C32.4757 27.6678 32.6083 27.5573 32.7009 27.416C32.7936 27.2747 32.842 27.109 32.84 26.94C32.8374 26.718 32.7481 26.5059 32.5911 26.3489C32.4341 26.1919 32.222 26.1026 32 26.1Z" fill="white"/>
<path d="M32 27.44C31.8674 27.44 31.7402 27.3873 31.6464 27.2936C31.5527 27.1998 31.5 27.0726 31.5 26.94V13.06C31.5 12.9274 31.5527 12.8002 31.6464 12.7064C31.7402 12.6127 31.8674 12.56 32 12.56C32.1326 12.56 32.2598 12.6127 32.3536 12.7064C32.4473 12.8002 32.5 12.9274 32.5 13.06V26.94C32.5 27.0726 32.4473 27.1998 32.3536 27.2936C32.2598 27.3873 32.1326 27.44 32 27.44Z" fill="url(#paint0_linear_903_50)" fill-opacity="0.8"/>
<path d="M32 41.33C31.8674 41.33 31.7402 41.2773 31.6464 41.1836C31.5527 41.0898 31.5 40.9626 31.5 40.83V26.94C31.5 26.8074 31.5527 26.6802 31.6464 26.5864C31.7402 26.4927 31.8674 26.44 32 26.44C32.1326 26.44 32.2598 26.4927 32.3536 26.5864C32.4473 26.6802 32.5 26.8074 32.5 26.94V40.83C32.5 40.9626 32.4473 41.0898 32.3536 41.1836C32.2598 41.2773 32.1326 41.33 32 41.33Z" fill="url(#paint1_linear_903_50)" fill-opacity="0.8"/>
<path d="M45.88 27.44H32C31.8674 27.44 31.7402 27.3873 31.6464 27.2936C31.5527 27.1998 31.5 27.0726 31.5 26.94C31.5 26.8074 31.5527 26.6802 31.6464 26.5864C31.7402 26.4927 31.8674 26.44 32 26.44H45.88C46.0126 26.44 46.1398 26.4927 46.2336 26.5864C46.3273 26.6802 46.38 26.8074 46.38 26.94C46.38 27.0726 46.3273 27.1998 46.2336 27.2936C46.1398 27.3873 46.0126 27.44 45.88 27.44Z" fill="url(#paint2_linear_903_50)" fill-opacity="0.8"/>
<path d="M32 27.44H18.12C17.9874 27.44 17.8602 27.3873 17.7664 27.2936C17.6727 27.1998 17.62 27.0726 17.62 26.94C17.62 26.8074 17.6727 26.6802 17.7664 26.5864C17.8602 26.4927 17.9874 26.44 18.12 26.44H32C32.1326 26.44 32.2598 26.4927 32.3535 26.5864C32.4473 26.6802 32.5 26.8074 32.5 26.94C32.5 27.0726 32.4473 27.1998 32.3535 27.2936C32.2598 27.3873 32.1326 27.44 32 27.44Z" fill="url(#paint3_linear_903_50)" fill-opacity="0.8"/>
<path d="M33.34 26.94C33.34 27.205 33.2614 27.4641 33.1142 27.6845C32.9669 27.9048 32.7577 28.0766 32.5128 28.178C32.2679 28.2794 31.9985 28.306 31.7386 28.2543C31.4786 28.2026 31.2399 28.0749 31.0525 27.8875C30.8651 27.7001 30.7375 27.4614 30.6858 27.2014C30.634 26.9415 30.6606 26.6721 30.762 26.4272C30.8634 26.1824 31.0352 25.9731 31.2555 25.8258C31.4759 25.6786 31.735 25.6 32 25.6C32.3554 25.6 32.6962 25.7412 32.9475 25.9925C33.1988 26.2438 33.34 26.5846 33.34 26.94Z" fill="#5C5C5C"/>
<defs>
<linearGradient id="paint0_linear_903_50" x1="31.5" y1="28.7198" x2="33.479" y2="28.6103" gradientUnits="userSpaceOnUse">
<stop stop-color="#EE0979"/>
<stop offset="1" stop-color="#FF6A00"/>
</linearGradient>
<linearGradient id="paint1_linear_903_50" x1="31.5" y1="42.6107" x2="33.4791" y2="42.5013" gradientUnits="userSpaceOnUse">
<stop stop-color="#EE0979"/>
<stop offset="1" stop-color="#FF6A00"/>
</linearGradient>
<linearGradient id="paint2_linear_903_50" x1="31.5" y1="27.526" x2="31.6956" y2="25.1303" gradientUnits="userSpaceOnUse">
<stop stop-color="#EE0979"/>
<stop offset="1" stop-color="#FF6A00"/>
</linearGradient>
<linearGradient id="paint3_linear_903_50" x1="17.62" y1="27.526" x2="17.8156" y2="25.1303" gradientUnits="userSpaceOnUse">
<stop stop-color="#EE0979"/>
<stop offset="1" stop-color="#FF6A00"/>
</linearGradient>
</defs>
</svg>
