<svg width="64" height="64" viewBox="0 0 64 64" fill="none" xmlns="http://www.w3.org/2000/svg">
<path d="M34.85 28H24.26C23.9488 28 23.6406 28.0613 23.3531 28.1804C23.0655 28.2995 22.8042 28.4741 22.5842 28.6942C22.3641 28.9142 22.1895 29.1755 22.0704 29.463C21.9513 29.7506 21.89 30.0588 21.89 30.37V36.64C21.8953 37.266 22.147 37.8648 22.5906 38.3065C23.0342 38.7482 23.634 38.9974 24.26 39H31.9L33.29 40.45C33.3596 40.5522 33.4616 40.6279 33.5795 40.665C33.6974 40.702 33.8244 40.6983 33.9399 40.6544C34.0554 40.6105 34.1528 40.529 34.2163 40.423C34.2799 40.3169 34.3058 40.1926 34.29 40.07V39H34.9C35.5295 38.9974 36.1323 38.7454 36.5765 38.2994C37.0206 37.8533 37.27 37.2495 37.27 36.62V30.36C37.2688 30.0454 37.2049 29.7341 37.0821 29.4444C36.9592 29.1547 36.78 28.8924 36.5547 28.6727C36.3294 28.4531 36.0627 28.2804 35.77 28.1649C35.4773 28.0494 35.1646 27.9934 34.85 28Z" fill="#CCD8E5"/>
<path d="M36.25 8H13.17C10.3147 8 8 10.3147 8 13.17V26.85C8 29.7053 10.3147 32.02 13.17 32.02H36.25C39.1053 32.02 41.42 29.7053 41.42 26.85V13.17C41.42 10.3147 39.1053 8 36.25 8Z" fill="#DFE8F4"/>
<path d="M14.5 28V34.37C14.5013 34.6094 14.5742 34.8429 14.7093 35.0406C14.8443 35.2383 15.0355 35.391 15.258 35.4792C15.4806 35.5673 15.7245 35.5869 15.9583 35.5354C16.1921 35.4839 16.4051 35.3636 16.57 35.19L23.43 28H14.5Z" fill="#DFE8F4"/>
<path d="M18.86 20.93C19.3681 20.93 19.78 20.5181 19.78 20.01C19.78 19.5019 19.3681 19.09 18.86 19.09C18.3519 19.09 17.94 19.5019 17.94 20.01C17.94 20.5181 18.3519 20.93 18.86 20.93Z" fill="url(#paint0_linear_827_88)" fill-opacity="0.8"/>
<path d="M24.71 20.93C25.2181 20.93 25.63 20.5181 25.63 20.01C25.63 19.5019 25.2181 19.09 24.71 19.09C24.2019 19.09 23.79 19.5019 23.79 20.01C23.79 20.5181 24.2019 20.93 24.71 20.93Z" fill="url(#paint1_linear_827_88)" fill-opacity="0.8"/>
<path d="M30.56 20.93C31.0681 20.93 31.48 20.5181 31.48 20.01C31.48 19.5019 31.0681 19.09 30.56 19.09C30.0519 19.09 29.64 19.5019 29.64 20.01C29.64 20.5181 30.0519 20.93 30.56 20.93Z" fill="url(#paint2_linear_827_88)" fill-opacity="0.8"/>
<path d="M47.18 35.82C47.1846 35.4723 47.0986 35.1294 46.9303 34.8251C46.7619 34.5209 46.5172 34.2657 46.2202 34.0849C45.9232 33.9041 45.5842 33.8038 45.2366 33.794C44.889 33.7842 44.5448 33.8652 44.2381 34.029C43.9314 34.1928 43.6726 34.4337 43.4875 34.728C43.3023 35.0223 43.197 35.3598 43.182 35.7072C43.1671 36.0546 43.243 36.3999 43.4022 36.7091C43.5614 37.0182 43.7985 37.2805 44.09 37.47C44.2545 37.5787 44.3886 37.7276 44.4796 37.9026C44.5706 38.0776 44.6155 38.2729 44.61 38.47V39.61H45.77V38.44C45.7614 38.2445 45.8028 38.0501 45.8903 37.8751C45.9778 37.7002 46.1085 37.5504 46.27 37.44C46.5414 37.2637 46.766 37.0243 46.9245 36.7421C47.083 36.4599 47.1707 36.1435 47.18 35.82Z" fill="#5C5C5C"/>
<path d="M41.81 38.67H48.57C49.291 38.67 50.0049 38.812 50.6709 39.0879C51.337 39.3638 51.9422 39.7682 52.452 40.278C52.9618 40.7878 53.3662 41.393 53.6421 42.0591C53.918 42.7251 54.06 43.439 54.06 44.16V52.67C54.0613 53.1068 53.9764 53.5396 53.8102 53.9436C53.6439 54.3475 53.3996 54.7147 53.0912 55.024C52.7827 55.3334 52.4163 55.5788 52.0128 55.7463C51.6094 55.9138 51.1768 56 50.74 56H39.65C38.7695 56 37.925 55.6502 37.3024 55.0276C36.6798 54.405 36.33 53.5605 36.33 52.68V44.16C36.33 42.7057 36.9071 41.3108 37.9345 40.2815C38.9619 39.2522 40.3557 38.6726 41.81 38.67Z" fill="url(#paint3_linear_827_88)" fill-opacity="0.8"/>
<path d="M36.32 51.34C35.8055 51.34 35.312 51.1356 34.9482 50.7718C34.5844 50.408 34.38 49.9145 34.38 49.4V46.71C34.38 46.1955 34.5844 45.702 34.9482 45.3382C35.312 44.9744 35.8055 44.77 36.32 44.77V51.34Z" fill="#5C5C5C"/>
<path d="M54.06 51.34C54.5745 51.34 55.068 51.1356 55.4318 50.7718C55.7956 50.408 56 49.9145 56 49.4V46.71C56 46.1955 55.7956 45.702 55.4318 45.3382C55.068 44.9744 54.5745 44.77 54.06 44.77V51.34Z" fill="#5C5C5C"/>
<path d="M43.42 47C43.422 47.4494 43.2905 47.8892 43.0423 48.2638C42.7941 48.6385 42.4402 48.931 42.0256 49.1043C41.611 49.2777 41.1543 49.324 40.7133 49.2376C40.2723 49.1511 39.8669 48.9357 39.5484 48.6187C39.23 48.3016 39.0128 47.8971 38.9244 47.4565C38.836 47.0159 38.8803 46.559 39.0518 46.1436C39.2233 45.7283 39.5143 45.3731 39.8878 45.1233C40.2613 44.8734 40.7006 44.74 41.15 44.74C41.7503 44.74 42.3262 44.9778 42.7516 45.4013C43.177 45.8249 43.4173 46.3997 43.42 47Z" fill="#DFE8F4"/>
<path d="M51.49 47C51.492 47.4498 51.3603 47.8901 51.1116 48.2649C50.8629 48.6397 50.5085 48.9322 50.0933 49.1053C49.6781 49.2783 49.2209 49.3241 48.7796 49.2369C48.3383 49.1496 47.9329 48.9332 47.6149 48.6151C47.2968 48.2971 47.0804 47.8917 46.9931 47.4504C46.9059 47.0091 46.9517 46.5519 47.1247 46.1367C47.2978 45.7215 47.5903 45.3671 47.9651 45.1184C48.3399 44.8697 48.7802 44.738 49.23 44.74C49.8294 44.74 50.4042 44.9781 50.8281 45.4019C51.2519 45.8258 51.49 46.4006 51.49 47Z" fill="#DFE8F4"/>
<path d="M46 52.47H44.37C43.9536 52.47 43.5543 52.3046 43.2598 52.0102C42.9654 51.7157 42.8 51.3164 42.8 50.9C42.8 50.8364 42.8253 50.7753 42.8703 50.7303C42.9153 50.6853 42.9763 50.66 43.04 50.66H47.34C47.4036 50.66 47.4647 50.6853 47.5097 50.7303C47.5547 50.7753 47.58 50.8364 47.58 50.9C47.58 51.107 47.5391 51.312 47.4595 51.5031C47.38 51.6943 47.2635 51.8678 47.1166 52.0137C46.9698 52.1596 46.7955 52.2751 46.6039 52.3534C46.4122 52.4317 46.207 52.4713 46 52.47Z" fill="#5C5C5C"/>
<defs>
<linearGradient id="paint0_linear_827_88" x1="17.94" y1="21.0883" x2="20.1174" y2="19.296" gradientUnits="userSpaceOnUse">
<stop stop-color="#EE0979"/>
<stop offset="1" stop-color="#FF6A00"/>
</linearGradient>
<linearGradient id="paint1_linear_827_88" x1="23.79" y1="21.0883" x2="25.9674" y2="19.296" gradientUnits="userSpaceOnUse">
<stop stop-color="#EE0979"/>
<stop offset="1" stop-color="#FF6A00"/>
</linearGradient>
<linearGradient id="paint2_linear_827_88" x1="29.64" y1="21.0883" x2="31.8174" y2="19.296" gradientUnits="userSpaceOnUse">
<stop stop-color="#EE0979"/>
<stop offset="1" stop-color="#FF6A00"/>
</linearGradient>
<linearGradient id="paint3_linear_827_88" x1="36.33" y1="57.4905" x2="56.9224" y2="40.1492" gradientUnits="userSpaceOnUse">
<stop stop-color="#EE0979"/>
<stop offset="1" stop-color="#FF6A00"/>
</linearGradient>
</defs>
</svg>
