<svg width="64" height="64" viewBox="0 0 64 64" fill="none" xmlns="http://www.w3.org/2000/svg">
<path d="M36.2196 25H39.7807C39.8095 25 39.838 25.0051 39.8646 25.015C39.8912 25.0249 39.9154 25.0394 39.9358 25.0577C39.9561 25.076 39.9723 25.0977 39.9833 25.1216C39.9943 25.1455 40 25.1711 40 25.197V33H36.0002V25.2063C35.9988 25.1797 36.0035 25.1531 36.0138 25.1281C36.0242 25.1031 36.0402 25.0803 36.0607 25.061C36.0812 25.0417 36.1058 25.0263 36.1331 25.0158C36.1605 25.0054 36.1899 25 36.2196 25Z" fill="#5C5C5C"/>
<path d="M39.98 31.93H24.01V42.15H39.98V31.93Z" fill="url(#paint0_linear_261_42)" fill-opacity="0.8"/>
<path d="M31.76 22L21.47 32.25C21.4232 32.2969 21.3911 32.3565 21.3777 32.4215C21.3643 32.4864 21.3702 32.5539 21.3946 32.6155C21.4191 32.6771 21.461 32.7303 21.5152 32.7684C21.5695 32.8065 21.6337 32.8279 21.7 32.83H42.3C42.3663 32.8279 42.4305 32.8065 42.4848 32.7684C42.539 32.7303 42.5809 32.6771 42.6054 32.6155C42.6298 32.5539 42.6357 32.4864 42.6223 32.4215C42.6089 32.3565 42.5768 32.2969 42.53 32.25L32.24 22C32.1763 21.9365 32.09 21.9008 32 21.9008C31.91 21.9008 31.8237 21.9365 31.76 22Z" fill="#5C5C5C"/>
<path d="M34.5 42.14H29.5V38.24C29.5 37.577 29.7634 36.9411 30.2322 36.4722C30.7011 36.0034 31.337 35.74 32 35.74C32.663 35.74 33.2989 36.0034 33.7678 36.4722C34.2366 36.9411 34.5 37.577 34.5 38.24V42.14Z" fill="#5C5C5C"/>
<path d="M49.45 15.53L42.72 21.89C45.2973 24.6244 46.7288 28.2424 46.72 32H56C56.0084 25.8734 53.6636 19.9775 49.45 15.53Z" fill="#DFE8F4"/>
<path d="M32 15C35.3623 15 38.6491 15.997 41.4447 17.865C44.2403 19.733 46.4193 22.388 47.706 25.4944C48.9926 28.6007 49.3293 32.0189 48.6734 35.3165C48.0174 38.6142 46.3983 41.6433 44.0208 44.0208C41.6433 46.3983 38.6142 48.0174 35.3165 48.6734C32.0189 49.3293 28.6007 48.9926 25.4944 47.706C22.388 46.4193 19.733 44.2403 17.865 41.4447C15.997 38.6491 15 35.3623 15 32C15 27.4913 16.7911 23.1673 19.9792 19.9792C23.1673 16.7911 27.4913 15 32 15ZM32 8C27.2532 8 22.6131 9.40758 18.6663 12.0447C14.7195 14.6819 11.6434 18.4302 9.82689 22.8156C8.01039 27.201 7.53511 32.0266 8.46115 36.6822C9.3872 41.3377 11.673 45.6141 15.0294 48.9706C18.3859 52.327 22.6623 54.6128 27.3178 55.5388C31.9734 56.4649 36.799 55.9896 41.1844 54.1731C45.5698 52.3566 49.3181 49.2805 51.9553 45.3337C54.5924 41.3869 56 36.7468 56 32C56 25.6348 53.4714 19.5303 48.9706 15.0294C44.4697 10.5286 38.3652 8 32 8Z" fill="#DFE8F4"/>
<path d="M32 8V15C36.5087 15 40.8327 16.7911 44.0208 19.9792C47.2089 23.1673 49 27.4913 49 32H56C56 25.6348 53.4714 19.5303 48.9706 15.0294C44.4697 10.5286 38.3652 8 32 8Z" fill="url(#paint1_linear_261_42)" fill-opacity="0.8"/>
<path d="M44.35 20.35C47.3345 23.4947 48.9989 27.6645 49 32H56C56.0084 25.8734 53.6636 19.9775 49.45 15.53L44.35 20.35Z" fill="#5C5C5C"/>
<defs>
<linearGradient id="paint0_linear_261_42" x1="24.01" y1="43.029" x2="35.9533" y2="27.6672" gradientUnits="userSpaceOnUse">
<stop stop-color="#EE0979"/>
<stop offset="1" stop-color="#FF6A00"/>
</linearGradient>
<linearGradient id="paint1_linear_261_42" x1="32" y1="34.0642" x2="60.4004" y2="10.6873" gradientUnits="userSpaceOnUse">
<stop stop-color="#EE0979"/>
<stop offset="1" stop-color="#FF6A00"/>
</linearGradient>
</defs>
</svg>
