<svg width="64" height="64" viewBox="0 0 64 64" fill="none" xmlns="http://www.w3.org/2000/svg">
<path d="M56 42.4H43.07C43.07 39.4641 41.9037 36.6484 39.8277 34.5723C37.7516 32.4963 34.9359 31.33 32 31.33C29.0641 31.33 26.2484 32.4963 24.1723 34.5723C22.0963 36.6484 20.93 39.4641 20.93 42.4H8C8 36.0348 10.5286 29.9303 15.0294 25.4294C19.5303 20.9286 25.6348 18.4 32 18.4C38.3652 18.4 44.4697 20.9286 48.9706 25.4294C53.4714 29.9303 56 36.0348 56 42.4Z" fill="#DFE8F4"/>
<path d="M43.07 42.4H56C56 36.0348 53.4714 29.9303 48.9706 25.4294C44.4697 20.9286 38.3652 18.4 32 18.4V31.33C34.9343 31.3353 37.7469 32.5033 39.8218 34.5782C41.8967 36.6531 43.0647 39.4657 43.07 42.4Z" fill="url(#paint0_linear_261_23)" fill-opacity="0.8"/>
<path d="M34.59 43.72H30.59V39.77L36.47 35.46C36.7974 35.2145 37.2023 35.0953 37.6105 35.1243C38.0187 35.1533 38.4027 35.3286 38.6921 35.6179C38.9814 35.9073 39.1567 36.2913 39.1857 36.6995C39.2147 37.1077 39.0955 37.5126 38.85 37.84L34.59 43.72Z" fill="url(#paint1_linear_261_23)" fill-opacity="0.8"/>
<path d="M32 18.4V31.33C34.1949 31.3281 36.3402 31.9828 38.16 33.21L47.38 24C43.0709 20.3836 37.6255 18.4009 32 18.4Z" fill="#5C5C5C"/>
<path d="M32 18.4C26.8269 18.3985 21.7937 20.0798 17.66 23.19L27 32.54C28.5456 31.7412 30.2601 31.3243 32 31.3243C33.7399 31.3243 35.4544 31.7412 37 32.54L46.35 23.19C42.2136 20.0777 37.1765 18.3964 32 18.4Z" fill="#CCD8E5"/>
<path d="M35.24 42.36C35.24 43.0008 35.05 43.6272 34.694 44.16C34.3379 44.6929 33.8319 45.1081 33.2399 45.3534C32.6479 45.5986 31.9964 45.6628 31.3679 45.5377C30.7394 45.4127 30.1621 45.1041 29.709 44.651C29.2559 44.1979 28.9473 43.6206 28.8223 42.9921C28.6972 42.3636 28.7614 41.7121 29.0066 41.1201C29.2519 40.5281 29.6671 40.0221 30.2 39.666C30.7328 39.31 31.3592 39.12 32 39.12C32.8593 39.12 33.6834 39.4614 34.291 40.069C34.8986 40.6766 35.24 41.5007 35.24 42.36Z" fill="#5C5C5C"/>
<path d="M48.06 39.46C50.7607 39.46 52.95 37.2707 52.95 34.57C52.95 31.8693 50.7607 29.68 48.06 29.68C45.3593 29.68 43.17 31.8693 43.17 34.57C43.17 37.2707 45.3593 39.46 48.06 39.46Z" fill="#5C5C5C"/>
<path d="M47 33.47C47 33.82 46.81 34.1 46.56 34.1C46.31 34.1 46.12 33.82 46.12 33.47C46.12 33.12 46.32 32.83 46.56 32.83C46.8 32.83 47 33.12 47 33.47Z" fill="white"/>
<path d="M50 33.47C50 33.82 49.81 34.1 49.56 34.1C49.31 34.1 49.12 33.82 49.12 33.47C49.12 33.12 49.32 32.83 49.56 32.83C49.8 32.83 50 33.12 50 33.47Z" fill="white"/>
<path d="M46.36 34.85C46.327 34.8509 46.2945 34.859 46.2649 34.8736C46.2352 34.8882 46.2091 34.909 46.1882 34.9346C46.1673 34.9602 46.1522 34.9901 46.1439 35.0221C46.1356 35.054 46.1342 35.0875 46.14 35.12C46.2068 35.5816 46.4376 36.0036 46.7902 36.3089C47.1428 36.6141 47.5936 36.7822 48.06 36.7822C48.5264 36.7822 48.9772 36.6141 49.3298 36.3089C49.6824 36.0036 49.9132 35.5816 49.98 35.12C49.9842 35.0869 49.9814 35.0533 49.9719 35.0213C49.9624 34.9893 49.9462 34.9596 49.9246 34.9342C49.903 34.9088 49.8762 34.8882 49.8462 34.8737C49.8161 34.8592 49.7834 34.8511 49.75 34.85H46.36Z" fill="white"/>
<path d="M32 29.78C34.7007 29.78 36.89 27.5907 36.89 24.89C36.89 22.1893 34.7007 20 32 20C29.2993 20 27.11 22.1893 27.11 24.89C27.11 27.5907 29.2993 29.78 32 29.78Z" fill="#CCD8E5"/>
<path d="M31 23.79C31 24.14 30.8 24.42 30.55 24.42C30.3 24.42 30.11 24.14 30.11 23.79C30.11 23.44 30.31 23.15 30.55 23.15C30.79 23.15 31 23.44 31 23.79Z" fill="white"/>
<path d="M33.94 23.79C33.94 24.14 33.74 24.42 33.5 24.42C33.26 24.42 33.05 24.14 33.05 23.79C33.05 23.44 33.25 23.15 33.5 23.15C33.75 23.15 33.94 23.44 33.94 23.79Z" fill="white"/>
<path d="M33.46 26.6H30.54C30.418 26.6 30.301 26.5515 30.2147 26.4653C30.1285 26.379 30.08 26.262 30.08 26.14C30.0786 26.0792 30.0896 26.0188 30.1122 25.9624C30.1349 25.9059 30.1687 25.8547 30.2117 25.8117C30.2547 25.7687 30.3059 25.7349 30.3624 25.7122C30.4188 25.6896 30.4792 25.6786 30.54 25.68H33.46C33.5208 25.6786 33.5812 25.6896 33.6376 25.7122C33.6941 25.7349 33.7453 25.7687 33.7883 25.8117C33.8313 25.8547 33.8651 25.9059 33.8878 25.9624C33.9104 26.0188 33.9214 26.0792 33.92 26.14C33.92 26.262 33.8715 26.379 33.7853 26.4653C33.699 26.5515 33.582 26.6 33.46 26.6Z" fill="white"/>
<path d="M17.06 38.99C19.7607 38.99 21.95 36.8007 21.95 34.1C21.95 31.3993 19.7607 29.21 17.06 29.21C14.3593 29.21 12.17 31.3993 12.17 34.1C12.17 36.8007 14.3593 38.99 17.06 38.99Z" fill="#DFE8F4"/>
<path d="M16 33C16 33.35 15.8 33.63 15.56 33.63C15.32 33.63 15.12 33.35 15.12 33C15.12 32.65 15.31 32.36 15.56 32.36C15.81 32.36 16 32.65 16 33Z" fill="white"/>
<path d="M19 33C19 33.35 18.81 33.63 18.56 33.63C18.31 33.63 18.12 33.35 18.12 33C18.12 32.65 18.32 32.36 18.56 32.36C18.8 32.36 19 32.65 19 33Z" fill="white"/>
<path d="M18.76 36.32C18.793 36.3191 18.8255 36.311 18.8551 36.2964C18.8848 36.2818 18.9109 36.261 18.9318 36.2354C18.9527 36.2098 18.9678 36.1799 18.9761 36.1479C18.9844 36.116 18.9858 36.0825 18.98 36.05C18.9132 35.5884 18.6824 35.1664 18.3298 34.8611C17.9772 34.5559 17.5264 34.3878 17.06 34.3878C16.5936 34.3878 16.1428 34.5559 15.7902 34.8611C15.4376 35.1664 15.2068 35.5884 15.14 36.05C15.1358 36.0831 15.1386 36.1167 15.1481 36.1487C15.1576 36.1807 15.1738 36.2104 15.1954 36.2358C15.217 36.2612 15.2438 36.2818 15.2738 36.2963C15.3039 36.3108 15.3366 36.3189 15.37 36.32H18.76Z" fill="white"/>
<defs>
<linearGradient id="paint0_linear_261_23" x1="32" y1="44.4642" x2="60.4004" y2="21.0873" gradientUnits="userSpaceOnUse">
<stop stop-color="#EE0979"/>
<stop offset="1" stop-color="#FF6A00"/>
</linearGradient>
<linearGradient id="paint1_linear_261_23" x1="30.59" y1="44.4597" x2="40.7668" y2="36.0829" gradientUnits="userSpaceOnUse">
<stop stop-color="#EE0979"/>
<stop offset="1" stop-color="#FF6A00"/>
</linearGradient>
</defs>
</svg>
