<svg width="64" height="64" viewBox="0 0 64 64" fill="none" xmlns="http://www.w3.org/2000/svg">
<path d="M45.61 20.0107H16.39C14.5178 20.0107 13 21.5284 13 23.4007V52.6207C13 54.4929 14.5178 56.0107 16.39 56.0107H45.61C47.4822 56.0107 49 54.4929 49 52.6207V23.4007C49 21.5284 47.4822 20.0107 45.61 20.0107Z" fill="#DFE8F4"/>
<path d="M21.99 20.0107H20.94V56.0107H21.99V20.0107Z" fill="#CCD8E5"/>
<path d="M31.53 20.0107H30.48V56.0107H31.53V20.0107Z" fill="#CCD8E5"/>
<path d="M41.07 20.0107H40.02V56.0107H41.07V20.0107Z" fill="#CCD8E5"/>
<path d="M49 29.0007V27.9507L13 27.9507V29.0007L49 29.0007Z" fill="#CCD8E5"/>
<path d="M49 38.5407V37.4907H13V38.5407H49Z" fill="#CCD8E5"/>
<path d="M49 48.0807V47.0307H13V48.0807H49Z" fill="#CCD8E5"/>
<path d="M45.61 20.0107H40.54V32.0107H49V23.4007C49 22.5016 48.6428 21.6393 48.0071 21.0036C47.3714 20.3678 46.5091 20.0107 45.61 20.0107Z" fill="#CCD8E5"/>
<path d="M50 17.4907C50.0014 16.207 49.7422 14.9363 49.2378 13.7558C48.7335 12.5753 47.9947 11.5095 47.0662 10.6231C46.1377 9.73662 45.0388 9.04799 43.8362 8.59893C42.6336 8.14988 41.3523 7.94975 40.07 8.01069C37.7804 8.21062 35.6312 9.1994 33.9897 10.8081C32.3481 12.4168 31.3161 14.5455 31.07 16.8307C30.971 18.3488 31.2392 19.8685 31.8519 21.2611C32.4646 22.6536 33.4038 23.878 34.59 24.8307C36.842 26.593 38.7045 28.8027 40.06 31.3207L40.33 31.8507C40.3501 31.886 40.3792 31.9154 40.4143 31.9359C40.4494 31.9563 40.4893 31.9671 40.53 31.9671C40.5706 31.9671 40.6106 31.9563 40.6457 31.9359C40.6808 31.9154 40.7099 31.886 40.73 31.8507L40.89 31.5407C42.2494 28.9455 44.1405 26.666 46.44 24.8507C47.5488 23.9707 48.4447 22.8518 49.0611 21.5775C49.6775 20.3032 49.9984 18.9062 50 17.4907Z" fill="url(#paint0_linear_261_63)" fill-opacity="0.8"/>
<path d="M43.74 17.7307C43.742 18.364 43.556 18.9837 43.2056 19.5112C42.8552 20.0388 42.3561 20.4505 41.7715 20.6942C41.187 20.9379 40.5433 21.0027 39.9219 20.8804C39.3005 20.7581 38.7293 20.4541 38.2808 20.007C37.8323 19.5598 37.5265 18.9897 37.4022 18.3687C37.2779 17.7476 37.3407 17.1037 37.5826 16.5184C37.8245 15.9331 38.2347 15.4327 38.7611 15.0807C39.2876 14.7286 39.9067 14.5407 40.54 14.5407C41.387 14.5407 42.1994 14.8764 42.7992 15.4744C43.399 16.0724 43.7374 16.8837 43.74 17.7307Z" fill="white"/>
<path d="M22.88 33.4307C22.88 33.7115 22.7967 33.9861 22.6407 34.2196C22.4847 34.4531 22.2629 34.6351 22.0034 34.7426C21.7439 34.8501 21.4584 34.8782 21.183 34.8234C20.9075 34.7686 20.6545 34.6334 20.4559 34.4348C20.2573 34.2362 20.1221 33.9832 20.0673 33.7077C20.0125 33.4323 20.0406 33.1467 20.1481 32.8873C20.2556 32.6278 20.4376 32.406 20.6711 32.25C20.9046 32.094 21.1792 32.0107 21.46 32.0107C21.6468 32.0094 21.8321 32.0452 22.005 32.1161C22.1779 32.187 22.3349 32.2915 22.4671 32.4236C22.5992 32.5558 22.7037 32.7128 22.7746 32.8857C22.8455 33.0586 22.8813 33.2438 22.88 33.4307Z" fill="url(#paint1_linear_261_63)" fill-opacity="0.8"/>
<path d="M32.42 47.5507C32.42 47.8315 32.3367 48.1061 32.1807 48.3396C32.0247 48.5731 31.8029 48.7551 31.5434 48.8626C31.2839 48.9701 30.9984 48.9982 30.723 48.9434C30.4475 48.8886 30.1945 48.7534 29.9959 48.5548C29.7973 48.3562 29.6621 48.1032 29.6073 47.8277C29.5525 47.5523 29.5806 47.2667 29.6881 47.0073C29.7956 46.7478 29.9776 46.526 30.2111 46.37C30.4446 46.214 30.7192 46.1307 31 46.1307C31.1869 46.1294 31.3721 46.1652 31.545 46.2361C31.7179 46.307 31.8749 46.4115 32.0071 46.5436C32.1392 46.6758 32.2437 46.8328 32.3146 47.0057C32.3855 47.1786 32.4213 47.3638 32.42 47.5507Z" fill="url(#paint2_linear_261_63)" fill-opacity="0.8"/>
<path d="M42 38.0107C42 38.2915 41.9167 38.5661 41.7607 38.7996C41.6047 39.0331 41.3829 39.2151 41.1234 39.3226C40.8639 39.4301 40.5784 39.4582 40.303 39.4034C40.0275 39.3486 39.7745 39.2134 39.5759 39.0148C39.3773 38.8162 39.2421 38.5632 39.1873 38.2877C39.1325 38.0123 39.1606 37.7267 39.2681 37.4673C39.3756 37.2078 39.5576 36.986 39.7911 36.83C40.0246 36.674 40.2992 36.5907 40.58 36.5907C40.7669 36.5894 40.9521 36.6252 41.125 36.6961C41.2979 36.767 41.4549 36.8715 41.5871 37.0036C41.7192 37.1358 41.8237 37.2928 41.8946 37.4657C41.9655 37.6386 42.0013 37.8238 42 38.0107Z" fill="#5C5C5C"/>
<defs>
<linearGradient id="paint0_linear_261_63" x1="31.0499" y1="34.0285" x2="57.475" y2="16.8305" gradientUnits="userSpaceOnUse">
<stop stop-color="#EE0979"/>
<stop offset="1" stop-color="#FF6A00"/>
</linearGradient>
<linearGradient id="paint1_linear_261_63" x1="20.04" y1="35.095" x2="23.4008" y2="32.3286" gradientUnits="userSpaceOnUse">
<stop stop-color="#EE0979"/>
<stop offset="1" stop-color="#FF6A00"/>
</linearGradient>
<linearGradient id="paint2_linear_261_63" x1="29.58" y1="49.2149" x2="32.9408" y2="46.4486" gradientUnits="userSpaceOnUse">
<stop stop-color="#EE0979"/>
<stop offset="1" stop-color="#FF6A00"/>
</linearGradient>
</defs>
</svg>
