<svg width="64" height="64" viewBox="0 0 64 64" fill="none" xmlns="http://www.w3.org/2000/svg">
<path d="M32.55 21.47H15.45V16.58C15.4461 15.4547 15.6643 14.3396 16.0922 13.2988C16.5201 12.258 17.1493 11.312 17.9436 10.5148C18.7379 9.71771 19.6818 9.08524 20.7211 8.65369C21.7604 8.22214 22.8747 7.99999 24 8C26.2676 8 28.4423 8.9008 30.0458 10.5042C31.6492 12.1077 32.55 14.2824 32.55 16.55V21.47Z" fill="#5C5C5C"/>
<path d="M16.09 19.06H18.4V22.92H16.09C15.8864 22.92 15.6849 22.8799 15.4968 22.802C15.3088 22.7241 15.1379 22.6099 14.994 22.466C14.85 22.3221 14.7359 22.1512 14.658 21.9632C14.5801 21.7751 14.54 21.5735 14.54 21.37V20.61C14.54 20.4064 14.5801 20.2049 14.658 20.0168C14.7359 19.8288 14.85 19.6579 14.994 19.514C15.1379 19.3701 15.3088 19.2559 15.4968 19.178C15.6849 19.1001 15.8864 19.06 16.09 19.06Z" fill="#CCD8E5"/>
<path d="M31.91 22.91H29.6V19.05H31.91C32.3211 19.05 32.7153 19.2133 33.006 19.504C33.2967 19.7947 33.46 20.1889 33.46 20.6V21.36C33.46 21.7711 33.2967 22.1653 33.006 22.456C32.7153 22.7467 32.3211 22.91 31.91 22.91Z" fill="#CCD8E5"/>
<path d="M31.65 22.66V19.24C31.6514 17.8968 31.299 16.5769 30.6285 15.4131C29.9579 14.2492 28.9927 13.2825 27.83 12.61C26.6661 11.9415 25.3472 11.5897 24.005 11.5897C22.6627 11.5897 21.3439 11.9415 20.18 12.61C19.0161 13.282 18.0495 14.2484 17.3772 15.4121C16.7049 16.5759 16.3507 17.896 16.35 19.24V22.66C16.3486 23.8386 16.6587 24.9966 17.2487 26.0168C17.8387 27.0371 18.6878 27.8834 19.71 28.47L20.71 29.06C21.7057 29.6349 22.8352 29.9375 23.985 29.9375C25.1348 29.9375 26.2643 29.6349 27.26 29.06L28.26 28.47C29.2885 27.888 30.1441 27.0435 30.7397 26.0228C31.3352 25.0021 31.6494 23.8417 31.65 22.66Z" fill="#DFE8F4"/>
<path d="M21.91 19.06H16.08L17.79 11.53H29V12C29 12.9297 28.8164 13.8502 28.4597 14.7087C28.1031 15.5672 27.5803 16.3468 26.9216 17.0028C26.2628 17.6588 25.481 18.1782 24.621 18.5312C23.7609 18.8843 22.8397 19.0639 21.91 19.06Z" fill="#5C5C5C"/>
<path d="M31.79 19.06C30.8326 19.06 29.9143 18.6797 29.2373 18.0027C28.5603 17.3257 28.18 16.4074 28.18 15.45V12.07L31.79 14.58V19.06Z" fill="#5C5C5C"/>
<path d="M21.47 24.25C21.4348 24.2495 21.4 24.2568 21.3679 24.2712C21.3358 24.2857 21.3073 24.3071 21.2844 24.3338C21.2615 24.3605 21.2448 24.3919 21.2354 24.4258C21.226 24.4597 21.2241 24.4953 21.23 24.53C21.3583 25.1715 21.705 25.7487 22.2109 26.1634C22.7168 26.5781 23.3508 26.8048 24.005 26.8048C24.6592 26.8048 25.2932 26.5781 25.7991 26.1634C26.305 25.7487 26.6517 25.1715 26.78 24.53C26.7859 24.4953 26.784 24.4597 26.7746 24.4258C26.7652 24.3919 26.7485 24.3605 26.7256 24.3338C26.7027 24.3071 26.6742 24.2857 26.6421 24.2712C26.61 24.2568 26.5752 24.2495 26.54 24.25H21.47Z" fill="white"/>
<path d="M40 44.81H8L9.74 36.13C9.90596 35.3076 10.3509 34.5677 10.9997 34.0356C11.6484 33.5035 12.461 33.2119 13.3 33.21H34.71C35.549 33.2119 36.3616 33.5035 37.0103 34.0356C37.6591 34.5677 38.104 35.3076 38.27 36.13L40 44.81Z" fill="url(#paint0_linear_261_77)" fill-opacity="0.8"/>
<path d="M29.64 33.21H18.43C18.4407 35.2157 18.9611 37.1858 19.9425 38.9351C20.9238 40.6844 22.3338 42.1554 24.04 43.21C25.743 42.1528 27.15 40.681 28.1294 38.9321C29.1088 37.1832 29.6285 35.2144 29.64 33.21Z" fill="#DFE8F4"/>
<path d="M24.8 36.68C24.694 36.1936 24.7107 35.6885 24.8486 35.2101C24.9865 34.7318 25.2413 34.2953 25.59 33.94L25.74 33.79L25.61 33.21H22.46L22.33 33.79L22.48 33.94C22.8304 34.2943 23.0871 34.7304 23.2268 35.2088C23.3664 35.6871 23.3847 36.1928 23.28 36.68L22.14 41.76C22.7144 42.3022 23.3369 42.7908 24 43.22C24.6739 42.793 25.3067 42.3042 25.89 41.76L24.8 36.68Z" fill="#5C5C5C"/>
<path d="M44 56C50.6274 56 56 50.6274 56 44C56 37.3726 50.6274 32 44 32C37.3726 32 32 37.3726 32 44C32 50.6274 37.3726 56 44 56Z" fill="#DFE8F4"/>
<path d="M32 44C32 44.27 32 44.54 32 44.81H40L38.27 36.13C38.1177 35.3593 37.7215 34.6581 37.14 34.13C35.5499 35.2379 34.2519 36.7143 33.3567 38.4332C32.4616 40.152 31.9961 42.0621 32 44Z" fill="#CCD8E5"/>
<path d="M47.1167 40.0003H48.8917C48.9204 40.0003 48.948 40.0106 48.9683 40.0289C48.9886 40.0472 49 40.072 49 40.0978V44H47V40.0978C47 40.0844 47.003 40.071 47.009 40.0587C47.0149 40.0463 47.0237 40.0352 47.0346 40.0261C47.0456 40.0169 47.0585 40.0099 47.0726 40.0054C47.0868 40.001 47.1018 39.9993 47.1167 40.0003Z" fill="#5C5C5C"/>
<path d="M48.99 43.95H39.01V50.34H48.99V43.95Z" fill="url(#paint1_linear_261_77)" fill-opacity="0.8"/>
<path d="M43.85 37.72L37.41 44.16C37.38 44.1894 37.3595 44.2271 37.3512 44.2682C37.3428 44.3093 37.347 44.352 37.3631 44.3908C37.3792 44.4295 37.4066 44.4626 37.4417 44.4856C37.4768 44.5086 37.518 44.5206 37.56 44.52H50.44C50.482 44.5206 50.5232 44.5086 50.5583 44.4856C50.5934 44.4626 50.6208 44.4295 50.6369 44.3908C50.653 44.352 50.6572 44.3093 50.6488 44.2682C50.6405 44.2271 50.62 44.1894 50.59 44.16L44.15 37.72C44.1093 37.682 44.0557 37.6609 44 37.6609C43.9443 37.6609 43.8907 37.682 43.85 37.72Z" fill="#5C5C5C"/>
<path d="M45.56 50.34H42.44V47.9C42.44 47.4863 42.6044 47.0895 42.8969 46.7969C43.1895 46.5044 43.5863 46.34 44 46.34C44.4137 46.34 44.8105 46.5044 45.1031 46.7969C45.3956 47.0895 45.56 47.4863 45.56 47.9V50.34Z" fill="#5C5C5C"/>
<defs>
<linearGradient id="paint0_linear_261_77" x1="8" y1="45.8077" x2="18.3189" y2="22.3767" gradientUnits="userSpaceOnUse">
<stop stop-color="#EE0979"/>
<stop offset="1" stop-color="#FF6A00"/>
</linearGradient>
<linearGradient id="paint1_linear_261_77" x1="39.01" y1="50.8896" x2="46.4784" y2="41.2884" gradientUnits="userSpaceOnUse">
<stop stop-color="#EE0979"/>
<stop offset="1" stop-color="#FF6A00"/>
</linearGradient>
</defs>
</svg>
