<svg width="64" height="64" viewBox="0 0 64 64" fill="none" xmlns="http://www.w3.org/2000/svg">
<path d="M52.22 44.264C51.2175 44.264 50.256 44.6623 49.5471 45.3711C48.8383 46.08 48.44 47.0415 48.44 48.044H56C56 47.0415 55.6018 46.08 54.8929 45.3711C54.184 44.6623 53.2225 44.264 52.22 44.264Z" fill="#5C5C5C"/>
<path d="M35.7 26.314H9.59V48.044H35.7V26.314Z" fill="#CCD8E5"/>
<path d="M15.15 32.704H29.88V39.594H15.15C14.9776 39.594 14.8123 39.5255 14.6904 39.4036C14.5685 39.2817 14.5 39.1164 14.5 38.944V33.354C14.5 33.1816 14.5685 33.0163 14.6904 32.8944C14.8123 32.7725 14.9776 32.704 15.15 32.704Z" fill="url(#paint0_linear_261_52)" fill-opacity="0.8"/>
<path d="M14.18 17.524L8.17999 25.214C8.10091 25.3147 8.05187 25.4356 8.03848 25.5629C8.0251 25.6903 8.04793 25.8188 8.10435 25.9337C8.16076 26.0486 8.24846 26.1453 8.35737 26.2125C8.46628 26.2798 8.59197 26.315 8.71999 26.314H39.25V17.254H14.72C14.6153 17.2544 14.512 17.2789 14.4184 17.3258C14.3247 17.3726 14.2431 17.4405 14.18 17.524Z" fill="#5C5C5C"/>
<path d="M41.33 17.784L31 26.614C30.6395 26.9254 30.3502 27.3107 30.1517 27.7438C29.9533 28.1769 29.8504 28.6476 29.85 29.124V48.044H52.75V29.124C52.7477 28.647 52.643 28.176 52.4428 27.7429C52.2427 27.3099 51.9519 26.9249 51.59 26.614L41.33 17.784Z" fill="#DFE8F4"/>
<path d="M40.15 19.124L30.26 27.604C30.0139 28.0731 29.8836 28.5943 29.88 29.124V32.704L40.53 23.574C40.7494 23.38 41.0321 23.2729 41.325 23.2729C41.6179 23.2729 41.9006 23.38 42.12 23.574L52.78 32.704V29.124C52.7729 28.5935 52.6392 28.0724 52.39 27.604L42.51 19.124C42.1808 18.8436 41.7625 18.6897 41.33 18.6897C40.8976 18.6897 40.4792 18.8436 40.15 19.124Z" fill="#CCD8E5"/>
<path d="M54.19 30.634C53.7524 30.6404 53.3282 30.4835 53 30.194L41.81 20.584C41.6746 20.4567 41.4958 20.3859 41.31 20.3859C41.1242 20.3859 40.9454 20.4567 40.81 20.584L29.71 30.134C29.3814 30.4277 28.96 30.5967 28.5195 30.6113C28.079 30.6259 27.6474 30.4853 27.3 30.214C27.0996 30.0431 26.9387 29.8308 26.8283 29.5917C26.7179 29.3526 26.6608 29.0924 26.6608 28.829C26.6608 28.5656 26.7179 28.3054 26.8283 28.0663C26.9387 27.8272 27.0996 27.6149 27.3 27.444L40.17 16.444C40.4965 16.1578 40.9158 16 41.35 16C41.7842 16 42.2035 16.1578 42.53 16.444L55.33 27.444C55.6586 27.7142 55.8851 28.0883 55.9724 28.5047C56.0597 28.921 56.0024 29.3546 55.81 29.734C55.6462 30.0161 55.4091 30.2486 55.1239 30.4071C54.8388 30.5655 54.5161 30.6439 54.19 30.634Z" fill="#5C5C5C"/>
<path d="M44.84 48.044V38.694C44.8373 38.1918 44.636 37.7111 44.28 37.357C43.9239 37.0028 43.4422 36.804 42.94 36.804H39C38.7518 36.804 38.506 36.8529 38.2767 36.9479C38.0474 37.0428 37.8391 37.1821 37.6636 37.3576C37.488 37.5331 37.3488 37.7414 37.2539 37.9707C37.1589 38.2 37.11 38.4458 37.11 38.694V48.044H44.84Z" fill="url(#paint1_linear_261_52)" fill-opacity="0.8"/>
<path d="M40.99 32.294C41.951 32.294 42.73 31.515 42.73 30.554C42.73 29.593 41.951 28.814 40.99 28.814C40.029 28.814 39.25 29.593 39.25 30.554C39.25 31.515 40.029 32.294 40.99 32.294Z" fill="#CCD8E5"/>
<path d="M15.89 45.524C15.5391 45.1277 15.108 44.8104 14.6253 44.5931C14.1427 44.3758 13.6193 44.2634 13.09 44.2634C12.5607 44.2634 12.0373 44.3758 11.5547 44.5931C11.072 44.8104 10.6409 45.1277 10.29 45.524C9.66401 45.5859 9.08325 45.8779 8.6602 46.3435C8.23715 46.809 8.0019 47.415 8 48.044H18.18C18.1804 47.4143 17.9459 46.8071 17.5224 46.3411C17.0989 45.8751 16.5169 45.5837 15.89 45.524Z" fill="url(#paint2_linear_261_52)" fill-opacity="0.8"/>
<defs>
<linearGradient id="paint0_linear_261_52" x1="14.5" y1="40.1866" x2="21.4769" y2="27.3673" gradientUnits="userSpaceOnUse">
<stop stop-color="#EE0979"/>
<stop offset="1" stop-color="#FF6A00"/>
</linearGradient>
<linearGradient id="paint1_linear_261_52" x1="37.11" y1="49.0107" x2="48.7309" y2="42.4324" gradientUnits="userSpaceOnUse">
<stop stop-color="#EE0979"/>
<stop offset="1" stop-color="#FF6A00"/>
</linearGradient>
<linearGradient id="paint2_linear_261_52" x1="8" y1="48.3692" x2="11.4178" y2="40.7937" gradientUnits="userSpaceOnUse">
<stop stop-color="#EE0979"/>
<stop offset="1" stop-color="#FF6A00"/>
</linearGradient>
</defs>
</svg>
