<svg width="6087" height="1914" viewBox="0 0 6087 1914" fill="none" xmlns="http://www.w3.org/2000/svg">
<path d="M5077.21 332.107C5077.21 397.768 5090.15 462.786 5115.27 523.449C5140.4 584.112 5177.23 639.231 5223.66 685.66C5270.09 732.09 5325.21 768.919 5385.87 794.047C5446.54 819.174 5511.55 832.107 5577.21 832.107L5577.21 707.107C5527.97 707.107 5479.21 697.407 5433.71 678.562C5388.21 659.716 5346.87 632.094 5312.05 597.272C5277.23 562.45 5249.6 521.11 5230.76 475.613C5211.91 430.116 5202.21 381.353 5202.21 332.107H5077.21Z" fill="#363636"/>
<path d="M5077.11 333C5077.11 298.482 5105.09 270 5139.61 270C5174.13 270 5202.11 298.482 5202.11 333H5077.11Z" fill="#363636"/>
<path d="M6077.21 1207.11C6077.21 1141.45 6064.28 1076.43 6039.15 1015.76C6014.03 955.102 5977.2 899.982 5930.77 853.553C5884.34 807.124 5829.22 770.294 5768.56 745.167C5707.89 720.039 5642.88 707.107 5577.21 707.107L5577.21 832.107C5626.46 832.107 5675.22 841.806 5720.72 860.652C5766.22 879.497 5807.56 907.119 5842.38 941.941C5877.2 976.763 5904.82 1018.1 5923.67 1063.6C5942.51 1109.1 5952.21 1157.86 5952.21 1207.11H6077.21Z" fill="#363636"/>
<path d="M5952.11 1207H6077.11C6077.11 1241.52 6049.12 1270 6014.61 1270C5980.09 1270 5952.11 1241.52 5952.11 1207Z" fill="#363636"/>
<path d="M5904.37 290.989C5915.62 277.679 5932.16 270 5949.59 270C5999.97 270 6027.32 328.923 5994.8 367.403L5249.84 1249.01C5238.6 1262.32 5222.05 1270 5204.63 1270C5154.25 1270 5126.9 1211.08 5159.41 1172.6L5904.37 290.989Z" fill="#363636"/>
<path d="M4877.22 770C4877.22 1046.14 4653.36 1270 4377.22 1270C4101.07 1270 3877.22 1046.14 3877.22 770C3877.22 493.858 4101.07 270 4377.22 270C4653.36 270 4877.22 493.858 4877.22 770ZM4002.22 770C4002.22 977.107 4170.11 1145 4377.22 1145C4584.32 1145 4752.22 977.107 4752.22 770C4752.22 562.893 4584.32 395 4377.22 395C4170.11 395 4002.22 562.893 4002.22 770Z" fill="#363636"/>
<path d="M3877.11 270H4002.11V770H3877.11V270Z" fill="#363636"/>
<path d="M3877.11 62.5C3877.11 27.9822 3905.09 0 3939.61 0C3974.13 0 4002.11 27.9822 4002.11 62.5V270H3877.11V62.5Z" fill="#363636"/>
<path d="M2907.1 770H3032.1V1207.5C3032.1 1242.02 3004.12 1270 2969.6 1270C2935.09 1270 2907.1 1242.02 2907.1 1207.5V770Z" fill="#363636"/>
<path d="M3407.22 269.999C3341.55 269.999 3276.54 282.932 3215.87 308.059C3155.21 333.187 3100.09 370.016 3053.66 416.446C3007.23 462.875 2970.4 517.995 2945.28 578.657C2920.15 639.32 2907.22 704.338 2907.22 769.999H3032.22C3032.22 720.753 3041.92 671.99 3060.76 626.493C3079.61 580.996 3107.23 539.656 3142.05 504.834C3176.87 470.012 3218.21 442.39 3263.71 423.544C3309.21 404.699 3357.97 394.999 3407.22 394.999V269.999Z" fill="#363636"/>
<path d="M3614.61 270C3649.13 270 3677.11 297.982 3677.11 332.5C3677.11 367.017 3649.13 395 3614.61 395H3407.11V270H3614.61Z" fill="#363636"/>
<path d="M1707.22 770.001C1707.22 902.61 1759.9 1029.79 1853.66 1123.55C1947.43 1217.32 2074.61 1270 2207.22 1270C2339.83 1270 2467 1217.32 2560.77 1123.55C2654.54 1029.79 2707.22 902.61 2707.22 770.001H2582.22C2582.22 869.458 2542.71 964.84 2472.38 1035.17C2402.06 1105.49 2306.67 1145 2207.22 1145C2107.76 1145 2012.38 1105.49 1942.05 1035.17C1871.73 964.84 1832.22 869.457 1832.22 770.001H1707.22Z" fill="#363636"/>
<path d="M1707.22 332.5C1707.22 297.982 1735.2 270 1769.72 270C1804.24 270 1832.22 297.982 1832.22 332.5V770H1707.22V332.5Z" fill="#363636"/>
<path d="M2582.22 332.5C2582.22 297.982 2610.2 270 2644.72 270C2679.24 270 2707.22 297.982 2707.22 332.5V770H2582.22V332.5Z" fill="#363636"/>
<path d="M1272.79 628.579C1350.9 706.683 1350.9 833.317 1272.79 911.421L848.528 1335.69C770.423 1413.79 643.79 1413.79 565.685 1335.69L530.33 1300.33L1060.66 770L530.33 239.67L565.685 204.314C643.79 126.21 770.423 126.21 848.528 204.314L1272.79 628.579Z" fill="url(#paint0_linear_395_1156)"/>
<path d="M141.421 911.421C63.3165 833.317 63.3165 706.683 141.421 628.579L565.685 204.315C643.79 126.21 770.423 126.21 848.528 204.315L883.884 239.67L353.553 770L883.884 1300.33L848.528 1335.69C770.423 1413.79 643.79 1413.79 565.686 1335.69L141.421 911.421Z" fill="url(#paint1_linear_395_1156)" fill-opacity="0.8"/>
<path d="M141.907 1881.2C136.707 1881.2 131.307 1880.8 126.107 1880C116.507 1878.4 107.507 1875.6 100.507 1871.6C91.7069 1867 85.9069 1860.8 83.5069 1854C81.1069 1847 88.5069 1838.2 95.7069 1841.8C97.5069 1842.8 98.7069 1844.6 99.9069 1846.2C107.107 1855 118.307 1858.8 129.107 1860.6C138.307 1862 147.707 1861.8 155.307 1860.2C164.707 1858.2 173.707 1853.4 177.307 1844.2C179.107 1839.6 179.507 1834.4 177.907 1829.8C173.307 1816.2 156.307 1811.2 141.907 1808.2C132.307 1806.2 122.707 1803.8 113.707 1800C104.107 1796.2 94.5069 1790.4 89.1069 1781.2C82.5069 1770.2 83.7069 1752.8 87.7069 1744.6C99.9069 1720.2 123.507 1717.4 137.307 1717.4C147.707 1717.4 158.507 1719.2 167.107 1722.6C178.107 1726.8 186.707 1734 189.307 1741.6C190.507 1744.8 189.707 1748.4 187.507 1751C185.107 1754 180.707 1755.4 177.107 1753.4C176.107 1752.8 175.307 1751.8 174.307 1751C170.307 1746.6 164.307 1742.4 156.907 1739.6C150.707 1737.2 143.907 1737 137.307 1737C121.707 1737 103.907 1743 103.907 1761.2C103.907 1778 118.507 1783 151.907 1791.2C194.707 1801.6 200.307 1825.2 196.307 1845.2C190.307 1875 155.107 1881.2 141.907 1881.2ZM487.444 1720.8C493.044 1720.8 497.444 1725.2 497.444 1730.8C497.444 1736.4 493.044 1740.8 487.444 1740.8H443.644V1868C443.644 1873.6 439.044 1878 433.644 1878C428.044 1878 423.644 1873.6 423.644 1868V1740.8H379.644C374.044 1740.8 369.644 1736.4 369.644 1730.8C369.644 1725.2 374.044 1720.8 379.644 1720.8H487.444ZM784.639 1877.2C780.039 1879.2 774.039 1877.6 771.239 1872.2L757.439 1841.4C744.439 1838.2 731.439 1838 718.839 1840.8C708.639 1842.8 698.639 1846.6 688.839 1852.6C678.839 1858.8 668.439 1867 660.839 1874.4C657.039 1878.2 652.039 1879.4 647.839 1876.8C643.439 1874 644.039 1868.4 646.039 1863.8L709.239 1726.6C711.039 1723 714.439 1720.8 718.439 1720.8C722.239 1720.8 726.039 1723.2 727.439 1726.6L789.639 1863.8C791.839 1869 789.639 1874.8 784.639 1877.2ZM718.239 1754.8L679.839 1836.6C690.439 1830.6 704.439 1825.2 715.639 1823C726.439 1820.6 737.439 1820.2 748.439 1821.2L718.239 1754.8ZM1076.68 1877.8C1072.08 1877.8 1067.88 1874.4 1066.88 1869.6C1064.48 1857.4 1060.68 1847.6 1055.48 1840.2C1051.68 1834.6 1046.88 1830.6 1041.48 1828C1037.28 1825.8 1033.08 1825 1029.88 1824.8C1027.28 1824.8 1024.48 1825 1021.68 1825C1016.68 1825 1012.28 1821 1011.88 1815.8C1011.28 1810.8 1014.88 1806 1019.88 1805.2C1020.68 1805 1024.48 1804.2 1030.08 1804.6C1040.48 1804 1048.68 1801.8 1054.68 1798.4C1063.48 1793.4 1067.68 1785.6 1067.68 1773.8C1067.68 1765.8 1066.08 1759.2 1063.28 1754C1061.08 1750.2 1057.88 1747.2 1054.08 1744.8C1046.88 1740.8 1039.48 1740.6 1038.88 1740.6H989.476V1867.8C989.476 1873.2 985.076 1877.8 979.476 1877.8C974.076 1877.8 969.476 1873.2 969.476 1867.8V1730.6C969.476 1725 974.076 1720.6 979.476 1720.6H1038.88C1039.68 1720.6 1044.48 1720.6 1050.68 1722.2C1059.48 1724.4 1067.28 1728.6 1073.28 1734.6C1077.68 1739 1081.28 1744.4 1083.68 1750.6C1086.28 1757.4 1087.68 1765.2 1087.68 1773.8C1087.68 1792.6 1079.68 1807.2 1064.68 1815.8C1063.68 1816.4 1062.68 1816.8 1061.48 1817.4C1065.08 1820.4 1068.28 1823.8 1071.28 1827.8C1078.48 1837.6 1083.48 1850.4 1086.48 1865.8C1087.48 1871.2 1084.08 1876.6 1078.68 1877.6C1077.88 1877.6 1077.28 1877.8 1076.68 1877.8ZM1375.57 1720.8C1381.17 1720.8 1385.57 1725.2 1385.57 1730.8C1385.57 1736.4 1381.17 1740.8 1375.57 1740.8H1331.77V1868C1331.77 1873.6 1327.17 1878 1321.77 1878C1316.17 1878 1311.77 1873.6 1311.77 1868V1740.8H1267.77C1262.17 1740.8 1257.77 1736.4 1257.77 1730.8C1257.77 1725.2 1262.17 1720.8 1267.77 1720.8H1375.57ZM1631.8 1880.4C1617.2 1880.4 1604.6 1877.4 1594.4 1871.4C1585.6 1866.4 1578.8 1859.4 1573.8 1850.4C1565.6 1835.2 1565.6 1819.4 1565.6 1814.2V1730.8C1565.6 1725.4 1570.2 1720.8 1575.6 1720.8C1581.2 1720.8 1585.6 1725.4 1585.6 1730.8V1814.2C1585.6 1818.2 1585.6 1830.2 1591.4 1840.8C1594.6 1846.6 1598.8 1851 1604.4 1854.2C1611.4 1858.2 1620.6 1860.4 1631.8 1860.4C1643 1860.4 1652.2 1858.2 1659.2 1854.2C1664.6 1851 1669 1846.6 1672 1841C1677.8 1830.2 1677.8 1818.2 1677.8 1814.2V1730.8C1677.8 1725.4 1682.4 1720.8 1687.8 1720.8C1693.4 1720.8 1697.8 1725.4 1697.8 1730.8V1814.2C1697.8 1819.4 1697.8 1835.4 1689.6 1850.4C1682.2 1864.2 1666.2 1880.4 1631.8 1880.4ZM1887.91 1878C1882.51 1878 1877.91 1873.6 1877.91 1868V1730.8C1877.91 1725.2 1882.51 1720.8 1887.91 1720.8H1947.31C1948.11 1720.8 1952.91 1720.8 1959.11 1722.4C1967.91 1724.6 1975.71 1729 1981.71 1734.8C1986.11 1739.2 1989.71 1744.6 1992.11 1750.8C1994.71 1757.6 1996.11 1765.4 1996.11 1774C1996.11 1793 1988.11 1807.4 1973.11 1816C1962.31 1822.2 1947.91 1825.2 1930.11 1825.2C1924.71 1825.2 1920.11 1820.8 1920.11 1815.2C1920.11 1809.6 1924.71 1805.2 1930.11 1805.2C1944.31 1805.2 1955.51 1803 1963.11 1798.6C1971.91 1793.6 1976.11 1785.8 1976.11 1774C1976.11 1766 1974.51 1759.4 1971.71 1754.4C1969.51 1750.4 1966.31 1747.4 1962.51 1745.2C1955.31 1741 1947.91 1740.8 1947.31 1740.8H1897.91V1868C1897.91 1873.6 1893.51 1878 1887.91 1878ZM2511.47 1878H2424.27C2418.87 1878 2414.27 1873.6 2414.27 1868V1730.8C2414.27 1725.2 2418.87 1720.8 2424.27 1720.8C2429.87 1720.8 2434.27 1725.2 2434.27 1730.8V1858H2511.47C2517.07 1858 2521.47 1862.4 2521.47 1868C2521.47 1873.6 2517.07 1878 2511.47 1878ZM2840.79 1877.2C2836.19 1879.2 2830.19 1877.6 2827.39 1872.2L2813.59 1841.4C2800.59 1838.2 2787.59 1838 2774.99 1840.8C2764.79 1842.8 2754.79 1846.6 2744.99 1852.6C2734.99 1858.8 2724.59 1867 2716.99 1874.4C2713.19 1878.2 2708.19 1879.4 2703.99 1876.8C2699.59 1874 2700.19 1868.4 2702.19 1863.8L2765.39 1726.6C2767.19 1723 2770.59 1720.8 2774.59 1720.8C2778.39 1720.8 2782.19 1723.2 2783.59 1726.6L2845.79 1863.8C2847.99 1869 2845.79 1874.8 2840.79 1877.2ZM2774.39 1754.8L2735.99 1836.6C2746.59 1830.6 2760.59 1825.2 2771.79 1823C2782.59 1820.6 2793.59 1820.2 2804.59 1821.2L2774.39 1754.8ZM3151.62 1838C3149.62 1862.8 3131.02 1878 3104.42 1878H3035.62C3033.02 1878 3030.42 1877 3028.62 1875.2C3026.82 1873.2 3025.62 1870.8 3025.62 1868V1730.8C3025.62 1725.2 3030.22 1720.8 3035.62 1720.8H3094.82C3121.02 1720.8 3139.22 1732.6 3142.62 1756.8C3145.22 1775.6 3137.22 1787.2 3127.82 1794C3141.02 1798.6 3153.42 1815.4 3151.62 1838ZM3131.62 1836.2C3133.62 1816.6 3122.82 1807 3103.22 1807H3102.62L3087.02 1807.2H3086.82C3081.42 1807.2 3077.02 1802.6 3076.82 1797.2C3076.82 1791.6 3081.42 1787.2 3086.82 1787.2L3102.02 1787C3116.82 1785.4 3124.62 1775.4 3122.82 1759.2C3121.22 1746.2 3111.82 1740.8 3094.82 1740.8H3045.62V1857.8H3104.42C3120.62 1857.8 3130.22 1851 3131.62 1836.2ZM3619.19 1879.8C3615.79 1879.8 3610.19 1879.6 3603.99 1878.4C3594.39 1876.4 3586.59 1872.6 3580.79 1867C3573.79 1859.8 3569.99 1850.4 3569.99 1838.8C3569.99 1830.4 3571.99 1822.8 3575.99 1815.8C3579.19 1810 3583.79 1804.8 3589.79 1800C3593.79 1796.8 3598.19 1794 3602.39 1791.8C3597.59 1786 3593.79 1779.2 3591.59 1772C3589.99 1767 3589.19 1762.2 3589.19 1757.4C3589.19 1747.6 3593.79 1737.6 3601.59 1730.2C3605.39 1726.6 3609.79 1723.6 3614.59 1721.6C3619.59 1719.4 3624.99 1718.4 3630.39 1718.4C3641.59 1718.4 3651.99 1721.4 3659.79 1726.8C3669.39 1733.8 3674.59 1744 3674.59 1756C3674.59 1766.4 3668.99 1776.2 3657.79 1785C3650.39 1791 3641.79 1795.4 3636.19 1798.2L3666.59 1829.6C3667.79 1827.8 3668.99 1826 3670.19 1824L3681.19 1805C3683.99 1800.4 3690.19 1798.6 3694.79 1801.4C3699.59 1804.2 3701.19 1810.4 3698.59 1815.2L3687.59 1834C3687.39 1834.2 3687.39 1834.2 3687.39 1834.2C3685.39 1837.8 3682.99 1841 3680.79 1844.2L3696.99 1861C3700.99 1865 3700.79 1871.2 3696.79 1875.2C3692.79 1879 3686.59 1878.8 3682.59 1875L3667.39 1859.2C3662.59 1863.4 3657.59 1867.2 3652.39 1870.4C3641.99 1876.4 3630.79 1879.8 3621.19 1879.8C3621.19 1879.8 3621.19 1879.8 3620.99 1879.8C3620.99 1879.8 3620.59 1879.8 3620.39 1879.8C3619.99 1879.8 3619.59 1879.8 3619.19 1879.8ZM3616.79 1807C3611.99 1809.2 3606.79 1812 3602.19 1815.6C3593.99 1822.2 3589.99 1829.8 3589.99 1838.8C3589.99 1844.8 3591.59 1849.4 3594.99 1852.8C3597.79 1855.6 3602.19 1857.6 3607.99 1858.8C3613.19 1859.8 3617.99 1859.8 3620.39 1859.8C3620.59 1859.8 3620.99 1859.8 3621.19 1859.8C3623.59 1859.8 3631.59 1859.2 3642.19 1853C3646.19 1850.8 3649.79 1848 3653.39 1844.8L3616.79 1807ZM3630.39 1738.4C3624.99 1738.4 3619.59 1740.6 3615.39 1744.6C3611.59 1748.2 3609.19 1753 3609.19 1757.4C3609.19 1760 3609.79 1763 3610.79 1766C3612.39 1771.6 3615.59 1777 3619.99 1781.4L3621.79 1783.2C3621.99 1783 3622.19 1783 3622.39 1782.8C3623.39 1782.4 3624.79 1781.6 3626.19 1781C3631.39 1778.4 3638.99 1774.4 3645.39 1769.4C3649.59 1766 3654.59 1761 3654.59 1756C3654.59 1750.4 3652.59 1746.4 3648.19 1743.2C3643.79 1740.2 3637.39 1738.4 3630.39 1738.4ZM4185.66 1878.4C4181.46 1878.4 4177.86 1876 4176.26 1872.2L4119.06 1733.8C4117.06 1728.8 4119.46 1723 4124.46 1720.8C4129.66 1718.6 4135.46 1721.2 4137.66 1726.2L4185.66 1842.2L4233.66 1726.2C4235.66 1721.2 4241.66 1718.6 4246.66 1720.8C4251.86 1723 4254.26 1728.8 4252.06 1733.8L4194.86 1872.2C4193.26 1876 4189.66 1878.4 4185.66 1878.4ZM4538.52 1858C4544.12 1858 4548.52 1862.4 4548.52 1868C4548.52 1873.6 4544.12 1878 4538.52 1878H4442.92C4437.52 1878 4432.92 1873.6 4432.92 1868V1730.8C4432.92 1725.2 4437.52 1720.8 4442.92 1720.8H4536.52C4542.12 1720.8 4546.52 1725.2 4546.52 1730.8C4546.52 1736.4 4542.12 1740.8 4536.52 1740.8H4452.92V1789H4526.92C4532.52 1789 4536.92 1793.6 4536.92 1799C4536.92 1804.6 4532.52 1809 4526.92 1809H4452.92V1858H4538.52ZM4856.84 1877.2C4852.84 1878.4 4847.84 1877.8 4845.24 1874.6L4748.64 1758.4V1868C4748.64 1873.6 4744.24 1878 4738.64 1878C4733.04 1878 4728.64 1873.6 4728.64 1868V1730.8C4728.64 1726.6 4731.24 1722.8 4735.24 1721.4C4739.24 1720 4743.64 1721.2 4746.24 1724.4L4843.04 1840.4V1730.6C4843.04 1725 4847.44 1720.6 4853.04 1720.6C4858.44 1720.6 4863.04 1725 4863.04 1730.6V1868.2C4863.04 1872.4 4861.04 1876 4856.84 1877.2ZM5160.9 1720.8C5166.5 1720.8 5170.9 1725.2 5170.9 1730.8C5170.9 1736.4 5166.5 1740.8 5160.9 1740.8H5117.1V1868C5117.1 1873.6 5112.5 1878 5107.1 1878C5101.5 1878 5097.1 1873.6 5097.1 1868V1740.8H5053.1C5047.5 1740.8 5043.1 1736.4 5043.1 1730.8C5043.1 1725.2 5047.5 1720.8 5053.1 1720.8H5160.9ZM5417.13 1880.4C5402.53 1880.4 5389.93 1877.4 5379.73 1871.4C5370.93 1866.4 5364.13 1859.4 5359.13 1850.4C5350.93 1835.2 5350.93 1819.4 5350.93 1814.2V1730.8C5350.93 1725.4 5355.53 1720.8 5360.93 1720.8C5366.53 1720.8 5370.93 1725.4 5370.93 1730.8V1814.2C5370.93 1818.2 5370.93 1830.2 5376.73 1840.8C5379.93 1846.6 5384.13 1851 5389.73 1854.2C5396.73 1858.2 5405.93 1860.4 5417.13 1860.4C5428.33 1860.4 5437.53 1858.2 5444.53 1854.2C5449.93 1851 5454.33 1846.6 5457.33 1841C5463.13 1830.2 5463.13 1818.2 5463.13 1814.2V1730.8C5463.13 1725.4 5467.73 1720.8 5473.13 1720.8C5478.73 1720.8 5483.13 1725.4 5483.13 1730.8V1814.2C5483.13 1819.4 5483.13 1835.4 5474.93 1850.4C5467.53 1864.2 5451.53 1880.4 5417.13 1880.4ZM5770.45 1877.8C5765.85 1877.8 5761.65 1874.4 5760.65 1869.6C5758.25 1857.4 5754.45 1847.6 5749.25 1840.2C5745.45 1834.6 5740.65 1830.6 5735.25 1828C5731.05 1825.8 5726.85 1825 5723.65 1824.8C5721.05 1824.8 5718.25 1825 5715.45 1825C5710.45 1825 5706.05 1821 5705.65 1815.8C5705.05 1810.8 5708.65 1806 5713.65 1805.2C5714.45 1805 5718.25 1804.2 5723.85 1804.6C5734.25 1804 5742.45 1801.8 5748.45 1798.4C5757.25 1793.4 5761.45 1785.6 5761.45 1773.8C5761.45 1765.8 5759.85 1759.2 5757.05 1754C5754.85 1750.2 5751.65 1747.2 5747.85 1744.8C5740.65 1740.8 5733.25 1740.6 5732.65 1740.6H5683.25V1867.8C5683.25 1873.2 5678.85 1877.8 5673.25 1877.8C5667.85 1877.8 5663.25 1873.2 5663.25 1867.8V1730.6C5663.25 1725 5667.85 1720.6 5673.25 1720.6H5732.65C5733.45 1720.6 5738.25 1720.6 5744.45 1722.2C5753.25 1724.4 5761.05 1728.6 5767.05 1734.6C5771.45 1739 5775.05 1744.4 5777.45 1750.6C5780.05 1757.4 5781.45 1765.2 5781.45 1773.8C5781.45 1792.6 5773.45 1807.2 5758.45 1815.8C5757.45 1816.4 5756.45 1816.8 5755.25 1817.4C5758.85 1820.4 5762.05 1823.8 5765.05 1827.8C5772.25 1837.6 5777.25 1850.4 5780.25 1865.8C5781.25 1871.2 5777.85 1876.6 5772.45 1877.6C5771.65 1877.6 5771.05 1877.8 5770.45 1877.8ZM6067.1 1858C6072.7 1858 6077.1 1862.4 6077.1 1868C6077.1 1873.6 6072.7 1878 6067.1 1878H5971.5C5966.1 1878 5961.5 1873.6 5961.5 1868V1730.8C5961.5 1725.2 5966.1 1720.8 5971.5 1720.8H6065.1C6070.7 1720.8 6075.1 1725.2 6075.1 1730.8C6075.1 1736.4 6070.7 1740.8 6065.1 1740.8H5981.5V1789H6055.5C6061.1 1789 6065.5 1793.6 6065.5 1799C6065.5 1804.6 6061.1 1809 6055.5 1809H5981.5V1858H6067.1Z" fill="#363636"/>
<defs>
<linearGradient id="paint0_linear_395_1156" x1="1414.21" y1="770" x2="3.14528e-05" y2="770" gradientUnits="userSpaceOnUse">
<stop stop-color="#1F5599"/>
<stop offset="0.551593" stop-color="#1D262F"/>
</linearGradient>
<linearGradient id="paint1_linear_395_1156" x1="0" y1="770" x2="1414.21" y2="770" gradientUnits="userSpaceOnUse">
<stop stop-color="#6AE5DE"/>
<stop offset="1" stop-color="#3F8682"/>
</linearGradient>
</defs>
</svg>
